<?xml version="1.0" encoding="utf-8"?>
<!-- Generator: Adobe Illustrator 24.0.2, SVG Export Plug-In . SVG Version: 6.00 Build 0)  -->
<svg version="1.1" id="圖層_1" xmlns="http://www.w3.org/2000/svg" xmlns:xlink="http://www.w3.org/1999/xlink" x="0px" y="0px"
	 viewBox="0 0 16 16" style="enable-background:new 0 0 16 16;" xml:space="preserve">
<style type="text/css">
	.st0{fill:#FFFFFF;}
</style>
<g>
	<path class="st0" d="M14.6,6.9c-0.3,0-0.5-0.2-0.5-0.5V2.2H9.9C9.7,2.2,9.4,2,9.4,1.7s0.2-0.5,0.5-0.5h4.7c0.3,0,0.5,0.2,0.5,0.5
		v4.7C15.1,6.7,14.9,6.9,14.6,6.9z"/>
	<path class="st0" d="M14.6,15.2H1.6c-0.3,0-0.5-0.2-0.5-0.5V1.7c0-0.3,0.2-0.5,0.5-0.5h5.3c0.3,0,0.5,0.2,0.5,0.5S7.1,2.2,6.9,2.2
		H2v12.1h12.1V9.5c0-0.3,0.2-0.5,0.5-0.5c0.3,0,0.5,0.2,0.5,0.5v5.3C15.1,15,14.9,15.2,14.6,15.2z"/>
	<path class="st0" d="M8.1,8.7c-0.1,0-0.2,0-0.3-0.1c-0.2-0.2-0.2-0.5,0-0.7l6.5-6.5c0.2-0.2,0.5-0.2,0.7,0s0.2,0.5,0,0.7L8.4,8.6
		C8.3,8.7,8.2,8.7,8.1,8.7z"/>
</g>
</svg>
