<?xml version="1.0" encoding="utf-8"?>
<!-- Generator: Adobe Illustrator 24.0.2, SVG Export Plug-In . SVG Version: 6.00 Build 0)  -->
<svg version="1.1" id="圖層_1" xmlns="http://www.w3.org/2000/svg" xmlns:xlink="http://www.w3.org/1999/xlink" x="0px" y="0px"
	 viewBox="0 0 60 60" style="enable-background:new 0 0 60 60;" xml:space="preserve">
<style type="text/css">
	.st0{clip-path:url(#SVGID_2_);fill:#FFFFFF;}
</style>
<g>
	<defs>
		<rect id="SVGID_1_" x="9.1" y="1.7" width="41.8" height="56.5"/>
	</defs>
	<clipPath id="SVGID_2_">
		<use xlink:href="#SVGID_1_"  style="overflow:visible;"/>
	</clipPath>
	<path class="st0" d="M33.2,36.9C33.2,36.9,33.1,36.9,33.2,36.9c-0.6,0-0.9-0.5-0.9-1c0.2-3.3,2.7-4.8,4.5-5.3v-8
		c0-0.5,0.4-0.9,0.9-0.9s0.9,0.4,0.9,0.9v8.8c0,0.5-0.3,0.8-0.8,0.9c-0.1,0-3.5,0.5-3.7,3.7C34.1,36.5,33.7,36.9,33.2,36.9"/>
	<path class="st0" d="M37.7,48H21.6c-0.5,0-0.9-0.4-0.9-0.9v-3.2c0-2.2-0.3-4.3-1-6.4l-0.9-3c0-0.1,0-0.2,0-0.3v-2.3
		c0-0.5,0.4-0.9,0.9-0.9c0.5,0,0.9,0.4,0.9,0.9v2.2l0.9,2.8c0.7,2.3,1.1,4.6,1.1,7v2.3h14.3v-5.7c0-0.2,0.1-0.5,0.2-0.6l4-4.2
		c1-1.1,1.6-2.6,1.6-4.1v-8.7c0-1.1-0.8-2-1.8-2.1c-0.6,0-1.1,0.1-1.5,0.5c-0.4,0.4-0.6,0.9-0.6,1.5c0,0.5-0.4,0.9-0.9,0.9
		c-0.5,0-0.9-0.4-0.9-0.9c0-1.1,0.5-2.1,1.2-2.8c0.8-0.7,1.9-1.1,2.9-1c1.9,0.2,3.5,1.9,3.5,3.9v8.7c0,2-0.7,3.9-2.1,5.3l-3.7,4v6.3
		C38.6,47.6,38.2,48,37.7,48"/>
	<path class="st0" d="M38.8,52.7H20.5c-0.5,0-0.9-0.4-0.9-0.9v-4.7c0-0.5,0.4-0.9,0.9-0.9h18.3c0.5,0,0.9,0.4,0.9,0.9v4.7
		C39.7,52.3,39.3,52.7,38.8,52.7 M21.4,50.8h16.5V48H21.4V50.8z"/>
	<path class="st0" d="M42,58.3H17.3c-0.5,0-0.9-0.4-0.9-0.9v-5.6c0-0.5,0.4-0.9,0.9-0.9H42c0.5,0,0.9,0.4,0.9,0.9v5.6
		C42.9,57.8,42.5,58.3,42,58.3 M18.2,56.4h22.9v-3.8H18.2V56.4z"/>
	<path class="st0" d="M50,32.8h-6.5c-0.5,0-0.9-0.4-0.9-0.9v-9.3c0-1.1-0.9-2-2-2c-1.1,0-2,0.9-2,2v9.3c0,0.5-0.4,0.9-0.9,0.9H10
		c-0.5,0-0.9-0.4-0.9-0.9V2.7c0-0.5,0.4-0.9,0.9-0.9h40c0.5,0,0.9,0.4,0.9,0.9v2.9c0,0.5-0.4,0.9-0.9,0.9c-0.5,0-0.9-0.4-0.9-0.9v-2
		H10.9V31h25.8v-8.4c0-2.1,1.7-3.8,3.8-3.8c2.1,0,3.8,1.7,3.8,3.8V31h4.7V10.5c0-0.5,0.4-0.9,0.9-0.9c0.5,0,0.9,0.4,0.9,0.9v21.4
		C50.9,32.4,50.5,32.8,50,32.8"/>
	<path class="st0" d="M34.9,8.4h-9c-0.5,0-0.9-0.4-0.9-0.9c0-0.5,0.4-0.9,0.9-0.9h9c0.5,0,0.9,0.4,0.9,0.9C35.8,8,35.4,8.4,34.9,8.4
		"/>
	<path class="st0" d="M44.5,12.5H16.3c-0.5,0-0.9-0.4-0.9-0.9c0-0.5,0.4-0.9,0.9-0.9h28.2c0.5,0,0.9,0.4,0.9,0.9
		C45.4,12.1,45,12.5,44.5,12.5"/>
	<path class="st0" d="M44.5,16.6H16.3c-0.5,0-0.9-0.4-0.9-0.9c0-0.5,0.4-0.9,0.9-0.9h28.2c0.5,0,0.9,0.4,0.9,0.9
		C45.4,16.2,45,16.6,44.5,16.6"/>
	<path class="st0" d="M39.2,20.7H16.3c-0.5,0-0.9-0.4-0.9-0.9c0-0.5,0.4-0.9,0.9-0.9h22.9c0.5,0,0.9,0.4,0.9,0.9
		C40.1,20.3,39.7,20.7,39.2,20.7"/>
	<path class="st0" d="M37.7,24.8H16.3c-0.5,0-0.9-0.4-0.9-0.9c0-0.5,0.4-0.9,0.9-0.9h21.4c0.5,0,0.9,0.4,0.9,0.9
		C38.6,24.4,38.2,24.8,37.7,24.8"/>
	<path class="st0" d="M49.1,58.3h-39c-0.5,0-0.9-0.4-0.9-0.9c0-0.5,0.4-0.9,0.9-0.9h39c0.5,0,0.9,0.4,0.9,0.9
		C50.1,57.8,49.7,58.3,49.1,58.3"/>
</g>
</svg>
