<?xml version="1.0" encoding="utf-8"?>
<!-- Generator: Adobe Illustrator 24.0.2, SVG Export Plug-In . SVG Version: 6.00 Build 0)  -->
<svg version="1.1" id="圖層_1" xmlns="http://www.w3.org/2000/svg" xmlns:xlink="http://www.w3.org/1999/xlink" x="0px" y="0px"
	 viewBox="0 0 60 60" style="enable-background:new 0 0 60 60;" xml:space="preserve">
<style type="text/css">
	.st0{clip-path:url(#SVGID_2_);fill:#FFFFFF;}
</style>
<g>
	<defs>
		<rect id="SVGID_1_" x="11.3" y="1.3" width="37.4" height="57.3"/>
	</defs>
	<clipPath id="SVGID_2_">
		<use xlink:href="#SVGID_1_"  style="overflow:visible;"/>
	</clipPath>
	<path class="st0" d="M17.3,28.4c-0.5,0-0.9-0.4-0.9-0.9v-3.1c0-0.5,0.4-0.9,0.9-0.9c0.5,0,0.9,0.4,0.9,0.9v3.1
		C18.2,28,17.8,28.4,17.3,28.4"/>
	<path class="st0" d="M28.3,33.5c-0.5,0-0.9-0.4-0.9-0.9v-8.2c0-0.5,0.4-0.9,0.9-0.9c0.5,0,0.9,0.4,0.9,0.9v8.2
		C29.2,33,28.8,33.5,28.3,33.5"/>
	<path class="st0" d="M22.8,13.8c-3.3,0-5.9-2.8-5.9-6.2c0-3.4,2.7-6.2,5.9-6.2s5.9,2.8,5.9,6.2C28.7,11,26.1,13.8,22.8,13.8
		 M22.8,3.1c-2.3,0-4.1,2-4.1,4.4s1.8,4.4,4.1,4.4c2.3,0,4.1-2,4.1-4.4S25.1,3.1,22.8,3.1"/>
	<path class="st0" d="M22.8,58.7c-0.5,0-0.9-0.4-0.9-0.9V39.2c0-0.5,0.4-0.9,0.9-0.9c0.5,0,0.9,0.4,0.9,0.9v18.6
		C23.7,58.3,23.3,58.7,22.8,58.7"/>
	<path class="st0" d="M21.1,33.5h-3.8c-3.3,0-6-2.7-6-6c0-0.5,0.4-0.9,0.9-0.9c0.5,0,0.9,0.4,0.9,0.9c0,2.3,1.9,4.2,4.2,4.2h3.8
		c0.9,0,1.6-0.7,1.6-1.6c0-0.9-0.7-1.6-1.6-1.6h-3.8c-0.5,0-0.9-0.4-0.9-0.9s0.4-0.9,0.9-0.9h3.8c1.9,0,3.4,1.5,3.4,3.4
		C24.5,31.9,23,33.5,21.1,33.5"/>
	<path class="st0" d="M28.3,58.7h-11c-0.5,0-0.9-0.4-0.9-0.9V32.5c0-0.5,0.4-0.9,0.9-0.9c0.5,0,0.9,0.4,0.9,0.9v24.3h9.1V32.5
		c0-0.5,0.4-0.9,0.9-0.9c0.5,0,0.9,0.4,0.9,0.9c0,0.8,0.7,1.5,1.5,1.5h0.2c0.8,0,1.5-0.7,1.5-1.5v-12c0-2.1-1.7-3.9-3.9-3.9H17
		c-2.1,0-3.9,1.7-3.9,3.9v6.9c0,0.5-0.4,0.9-0.9,0.9c-0.5,0-0.9-0.4-0.9-0.9v-6.9c0-3.1,2.6-5.7,5.7-5.7h11.5c3.1,0,5.7,2.6,5.7,5.7
		v12c0,1.8-1.5,3.3-3.3,3.3h-0.2c-0.5,0-1.1-0.1-1.5-0.4v22.2C29.2,58.3,28.8,58.7,28.3,58.7"/>
	<path class="st0" d="M22.9,29.2c-0.5,0-0.9-0.4-0.9-0.9v-5c0-0.5,0.4-0.9,0.9-0.9c0.5,0,0.9,0.4,0.9,0.9v5
		C23.8,28.7,23.4,29.2,22.9,29.2"/>
	<path class="st0" d="M22.9,24.1c-1.7,0-3-1.3-3-3c0-1.7,1.3-3,3-3c1.7,0,3,1.3,3,3C25.9,22.8,24.6,24.1,22.9,24.1 M22.9,19.9
		c-0.7,0-1.2,0.5-1.2,1.2c0,0.7,0.5,1.2,1.2,1.2c0.7,0,1.2-0.5,1.2-1.2C24.1,20.5,23.6,19.9,22.9,19.9"/>
	<path class="st0" d="M33.3,58.7H12.2c-0.5,0-0.9-0.4-0.9-0.9c0-0.5,0.4-0.9,0.9-0.9h21.1c0.5,0,0.9,0.4,0.9,0.9
		C34.2,58.3,33.8,58.7,33.3,58.7"/>
	<path class="st0" d="M38.2,18.5c-0.2,0-0.5-0.1-0.6-0.3c-0.4-0.4-0.4-0.9,0-1.3l7.8-7.8c0.3-0.3,0.6-0.3,1-0.2s0.6,0.4,0.6,0.8
		l0.3,4.7c0,0.5-0.3,0.9-0.8,1c-0.5,0-0.9-0.3-1-0.8l-0.2-2.7l-6.4,6.4C38.6,18.4,38.4,18.5,38.2,18.5"/>
	<path class="st0" d="M38.2,18.5c-0.2,0-0.5-0.1-0.6-0.3c-0.4-0.4-0.4-0.9,0-1.3l6.4-6.4l-2.7-0.2c-0.5,0-0.9-0.5-0.8-1
		c0-0.5,0.5-0.9,1-0.8l4.7,0.3c0.4,0,0.7,0.3,0.8,0.6c0.1,0.3,0,0.7-0.2,1l-7.8,7.8C38.6,18.4,38.4,18.5,38.2,18.5"/>
	<path class="st0" d="M46,53.3c-0.2,0-0.5-0.1-0.6-0.3l-7.8-7.8c-0.4-0.4-0.4-0.9,0-1.3c0.4-0.4,0.9-0.4,1.3,0l6.4,6.4l0.2-2.7
		c0-0.5,0.5-0.9,1-0.8c0.5,0,0.9,0.5,0.8,1l-0.3,4.7c0,0.4-0.3,0.7-0.6,0.8C46.2,53.3,46.1,53.3,46,53.3"/>
	<path class="st0" d="M41.3,53.6c-0.5,0-0.9-0.4-0.9-0.8c0-0.5,0.3-0.9,0.8-1l2.7-0.2l-6.4-6.4c-0.4-0.4-0.4-0.9,0-1.3
		c0.4-0.4,0.9-0.4,1.3,0l7.8,7.8c0.3,0.3,0.3,0.6,0.2,1c-0.1,0.3-0.4,0.6-0.8,0.6L41.3,53.6C41.3,53.6,41.3,53.6,41.3,53.6"/>
	<path class="st0" d="M47.8,32H36.7c-0.5,0-0.9-0.4-0.9-0.9c0-0.5,0.4-0.9,0.9-0.9h9.1l-1.8-2c-0.3-0.4-0.3-1,0.1-1.3
		c0.4-0.3,1-0.3,1.3,0.1l3.1,3.6c0.2,0.3,0.3,0.6,0.1,1S48.1,32,47.8,32"/>
	<path class="st0" d="M44.7,35.5c-0.2,0-0.4-0.1-0.6-0.2C43.7,35,43.7,34.4,44,34l1.8-2h-9.1c-0.5,0-0.9-0.4-0.9-0.9
		s0.4-0.9,0.9-0.9h11.1c0.4,0,0.7,0.2,0.8,0.5c0.1,0.3,0.1,0.7-0.1,1l-3.1,3.6C45.2,35.4,44.9,35.5,44.7,35.5"/>
</g>
</svg>
