<?xml version="1.0" encoding="utf-8"?>
<!-- Generator: Adobe Illustrator 24.0.2, SVG Export Plug-In . SVG Version: 6.00 Build 0)  -->
<svg version="1.1" id="圖層_1" xmlns="http://www.w3.org/2000/svg" xmlns:xlink="http://www.w3.org/1999/xlink" x="0px" y="0px"
	 viewBox="0 0 60 60" style="enable-background:new 0 0 60 60;" xml:space="preserve">
<style type="text/css">
	.st0{clip-path:url(#SVGID_2_);fill:#FFFFFF;stroke:#FFFFFF;stroke-miterlimit:10;}
	.st1{clip-path:url(#SVGID_2_);fill:#2B2A2A;}
</style>
<g>
	<defs>
		<rect id="SVGID_1_" x="3.7" y="2.6" width="52.6" height="54.9"/>
	</defs>
	<clipPath id="SVGID_2_">
		<use xlink:href="#SVGID_1_"  style="overflow:visible;"/>
	</clipPath>
	<path class="st0" d="M55.4,42.3H4.6c-0.5,0-0.9-0.4-0.9-0.9c0-0.5,0.4-0.9,0.9-0.9h50.7c0.5,0,0.9,0.4,0.9,0.9
		C56.3,41.8,55.9,42.3,55.4,42.3"/>
	<path class="st0" d="M33.3,51.6h-6.6c-0.5,0-0.9-0.4-0.9-0.9v-4.5c0-0.5,0.4-0.9,0.9-0.9h6.6c0.5,0,0.9,0.4,0.9,0.9v4.5
		C34.2,51.2,33.8,51.6,33.3,51.6 M27.6,49.8h4.8v-2.6h-4.8V49.8z"/>
	<path class="st0" d="M38,57.4H22c-0.3,0-0.6-0.2-0.8-0.5c-0.2-0.3-0.2-0.6,0-0.9l3.4-5.8c0.2-0.3,0.5-0.5,0.8-0.5h9.2
		c0.3,0,0.6,0.2,0.8,0.5l3.4,5.8c0.2,0.3,0.2,0.6,0,0.9C38.6,57.3,38.3,57.4,38,57.4 M23.6,55.6h12.7l-2.3-4h-8.1L23.6,55.6z"/>
	<path class="st0" d="M43.6,57.4H16.4c-0.5,0-0.9-0.4-0.9-0.9c0-0.5,0.4-0.9,0.9-0.9h27.2c0.5,0,0.9,0.4,0.9,0.9
		C44.5,57,44.1,57.4,43.6,57.4"/>
	<path class="st0" d="M52.2,47.2H7.8c-2.3,0-4.1-1.9-4.1-4.1V14.3c0-2.3,1.9-4.1,4.1-4.1h3c0.5,0,0.9,0.4,0.9,0.9S11.4,12,10.9,12
		h-3c-1.3,0-2.3,1-2.3,2.3V43c0,1.3,1,2.3,2.3,2.3h44.3c1.3,0,2.3-1,2.3-2.3V14.3c0-1.3-1-2.3-2.3-2.3h-3c-0.5,0-0.9-0.4-0.9-0.9
		s0.4-0.9,0.9-0.9h3c2.3,0,4.1,1.8,4.1,4.1V43C56.3,45.3,54.4,47.2,52.2,47.2"/>
	<path class="st1" d="M12.1,33.1c-0.4,0-0.7-0.3-0.7-0.7v-1.7c0-0.4,0.3-0.7,0.7-0.7h1.1v-0.6h-1.1c-0.4,0-0.7-0.3-0.7-0.7V27
		c0-0.4,0.3-0.7,0.7-0.7h3.3v-17h-3.3c-0.4,0-0.7-0.3-0.7-0.7V6.9c0-0.4,0.3-0.7,0.7-0.7h1.1V5.6h-1.1c-0.4,0-0.7-0.3-0.7-0.7V3.2
		c0-0.4,0.3-0.7,0.7-0.7h35.8c0.4,0,0.7,0.3,0.7,0.7v1.7c0,0.4-0.3,0.7-0.7,0.7h-1.3v0.6h1.3c0.4,0,0.7,0.3,0.7,0.7v1.7
		c0,0.4-0.3,0.7-0.7,0.7h-3.8v17h3.8c0.4,0,0.7,0.3,0.7,0.7v1.7c0,0.4-0.3,0.7-0.7,0.7h-1.3V30h1.3c0.4,0,0.7,0.3,0.7,0.7v1.7
		c0,0.4-0.3,0.7-0.7,0.7H12.1z M47.3,31.7v-0.4H46c-0.4,0-0.7-0.3-0.7-0.7v-2c0-0.4,0.3-0.7,0.7-0.7h1.3v-0.4H12.8V28h1.1
		c0.4,0,0.7,0.3,0.7,0.7v2c0,0.4-0.3,0.7-0.7,0.7h-1.1v0.4H47.3z M40,9.3H20v17h20V9.3z M42.8,9.3h-1.5v16.8h1.5V9.3z M18.6,9.3
		h-1.8v16.8h1.8V9.3z M43.5,8c0.1,0,0.1,0,0.2,0l3.6,0V7.6H46c-0.4,0-0.7-0.3-0.7-0.7v-2c0-0.4,0.3-0.7,0.7-0.7h1.3V3.9H12.8v0.4
		h1.1c0.4,0,0.7,0.3,0.7,0.7v2c0,0.4-0.3,0.7-0.7,0.7h-1.1V8H16c0,0,0.1,0,0.1,0h3.2c0.1,0,0.1,0,0.2,0l21.2,0c0,0,0.1,0,0.1,0H43.5
		z"/>
	<path class="st0" d="M11.6,3.2v1.7c0,0.3,0.2,0.5,0.5,0.5h1.3v1h-1.3c-0.3,0-0.5,0.2-0.5,0.5v1.7c0,0.3,0.2,0.5,0.5,0.5h3.5v17.4
		h-3.5c-0.3,0-0.5,0.2-0.5,0.5v1.7c0,0.3,0.2,0.5,0.5,0.5h1.3v1h-1.3c-0.3,0-0.5,0.2-0.5,0.5v1.7c0,0.3,0.2,0.5,0.5,0.5h35.8
		c0.3,0,0.5-0.2,0.5-0.5v-1.7c0-0.3-0.2-0.5-0.5-0.5h-1.5v-1h1.5c0.3,0,0.5-0.2,0.5-0.5V27c0-0.3-0.2-0.5-0.5-0.5h-4V9.1h4
		c0.3,0,0.5-0.2,0.5-0.5V6.9c0-0.3-0.2-0.5-0.5-0.5h-1.5v-1h1.5c0.3,0,0.5-0.2,0.5-0.5V3.2c0-0.3-0.2-0.5-0.5-0.5H12.1
		C11.8,2.8,11.6,3,11.6,3.2 M12.6,3.7h34.9v0.8H46c-0.3,0-0.5,0.2-0.5,0.5v2c0,0.3,0.2,0.5,0.5,0.5h1.5v0.8h-3.8c0,0-0.1,0-0.1,0
		h-2.8c0,0-0.1,0-0.1,0H19.3c0,0-0.1,0-0.1,0h-3.2c0,0-0.1,0-0.1,0h-3.4V7.4h1.3c0.3,0,0.5-0.2,0.5-0.5v-2c0-0.3-0.2-0.5-0.5-0.5
		h-1.3V3.7z M43,26.3h-1.9V9.1H43V26.3z M47.5,28.2H46c-0.3,0-0.5,0.2-0.5,0.5v2c0,0.3,0.2,0.5,0.5,0.5h1.5v0.8H12.6v-0.8h1.3
		c0.3,0,0.5-0.2,0.5-0.5v-2c0-0.3-0.2-0.5-0.5-0.5h-1.3v-0.8h6.8h21.3h6.8V28.2z M16.5,9.1h2.2v17.2h-2.2V9.1z M19.8,9.1h20.4v17.4
		H19.8V9.1z"/>
	<path class="st1" d="M34.1,7.6c-0.4,0-0.7-0.3-0.7-0.7v-2c0-0.4,0.3-0.7,0.7-0.7h3.5c0.4,0,0.7,0.3,0.7,0.7v2
		c0,0.4-0.3,0.7-0.7,0.7H34.1z M36.9,5.6h-2.1v0.6h2.1V5.6z"/>
	<path class="st0" d="M34.1,7.4h3.5c0.3,0,0.5-0.2,0.5-0.5v-2c0-0.3-0.2-0.5-0.5-0.5h-3.5c-0.3,0-0.5,0.2-0.5,0.5v2
		C33.6,7.2,33.8,7.4,34.1,7.4 M34.6,5.4h2.5v1h-2.5V5.4z"/>
	<path class="st1" d="M28.2,7.6c-0.4,0-0.7-0.3-0.7-0.7v-2c0-0.4,0.3-0.7,0.7-0.7h3.5c0.4,0,0.7,0.3,0.7,0.7v2
		c0,0.4-0.3,0.7-0.7,0.7H28.2z M31,5.6h-2.1v0.6H31V5.6z"/>
	<path class="st0" d="M28.2,7.4h3.5c0.3,0,0.5-0.2,0.5-0.5v-2c0-0.3-0.2-0.5-0.5-0.5h-3.5c-0.3,0-0.5,0.2-0.5,0.5v2
		C27.7,7.2,27.9,7.4,28.2,7.4 M28.6,5.4h2.5v1h-2.5V5.4z"/>
	<path class="st1" d="M40,7.6c-0.4,0-0.7-0.3-0.7-0.7v-2c0-0.4,0.3-0.7,0.7-0.7h3.5c0.4,0,0.7,0.3,0.7,0.7v2c0,0.4-0.3,0.7-0.7,0.7
		H40z M42.8,5.6h-2.1v0.6h2.1V5.6z"/>
	<path class="st0" d="M40,7.4h3.5c0.3,0,0.5-0.2,0.5-0.5v-2c0-0.3-0.2-0.5-0.5-0.5H40c-0.3,0-0.5,0.2-0.5,0.5v2
		C39.6,7.2,39.8,7.4,40,7.4 M40.5,5.4H43v1h-2.5V5.4z"/>
	<path class="st1" d="M16.1,7.6c-0.4,0-0.7-0.3-0.7-0.7v-2c0-0.4,0.3-0.7,0.7-0.7h3.5c0.4,0,0.7,0.3,0.7,0.7v2
		c0,0.4-0.3,0.7-0.7,0.7H16.1z M18.9,5.6h-2.1v0.6h2.1V5.6z"/>
	<path class="st0" d="M16.1,7.4h3.5c0.3,0,0.5-0.2,0.5-0.5v-2c0-0.3-0.2-0.5-0.5-0.5h-3.5c-0.3,0-0.5,0.2-0.5,0.5v2
		C15.6,7.2,15.8,7.4,16.1,7.4 M16.5,5.4h2.5v1h-2.5V5.4z"/>
	<path class="st1" d="M22,7.6c-0.4,0-0.7-0.3-0.7-0.7v-2c0-0.4,0.3-0.7,0.7-0.7h3.5c0.4,0,0.7,0.3,0.7,0.7v2c0,0.4-0.3,0.7-0.7,0.7
		H22z M24.8,5.6h-2.1v0.6h2.1V5.6z"/>
	<path class="st0" d="M22,7.4h3.5c0.3,0,0.5-0.2,0.5-0.5v-2c0-0.3-0.2-0.5-0.5-0.5H22c-0.3,0-0.5,0.2-0.5,0.5v2
		C21.5,7.2,21.8,7.4,22,7.4 M22.5,5.4H25v1h-2.5V5.4z"/>
	<path class="st1" d="M16.1,31.3c-0.4,0-0.7-0.3-0.7-0.7v-2c0-0.4,0.3-0.7,0.7-0.7h3.5c0.4,0,0.7,0.3,0.7,0.7v2
		c0,0.4-0.3,0.7-0.7,0.7H16.1z M18.9,29.4h-2.1V30h2.1V29.4z"/>
	<path class="st0" d="M19.5,28.2h-3.5c-0.3,0-0.5,0.2-0.5,0.5v2c0,0.3,0.2,0.5,0.5,0.5h3.5c0.3,0,0.5-0.2,0.5-0.5v-2
		C20,28.4,19.8,28.2,19.5,28.2 M19.1,30.2h-2.5v-1h2.5V30.2z"/>
	<path class="st1" d="M28.2,31.3c-0.4,0-0.7-0.3-0.7-0.7v-2c0-0.4,0.3-0.7,0.7-0.7h3.5c0.4,0,0.7,0.3,0.7,0.7v2
		c0,0.4-0.3,0.7-0.7,0.7H28.2z M31,29.4h-2.1V30H31V29.4z"/>
	<path class="st0" d="M31.6,28.2h-3.5c-0.3,0-0.5,0.2-0.5,0.5v2c0,0.3,0.2,0.5,0.5,0.5h3.5c0.3,0,0.5-0.2,0.5-0.5v-2
		C32.1,28.4,31.9,28.2,31.6,28.2 M31.2,30.2h-2.5v-1h2.5V30.2z"/>
	<path class="st1" d="M40,31.3c-0.4,0-0.7-0.3-0.7-0.7v-2c0-0.4,0.3-0.7,0.7-0.7h3.5c0.4,0,0.7,0.3,0.7,0.7v2c0,0.4-0.3,0.7-0.7,0.7
		H40z M42.8,29.4h-2.1V30h2.1V29.4z"/>
	<path class="st0" d="M39.6,28.7v2c0,0.3,0.2,0.5,0.5,0.5h3.5c0.3,0,0.5-0.2,0.5-0.5v-2c0-0.3-0.2-0.5-0.5-0.5H40
		C39.8,28.2,39.6,28.4,39.6,28.7 M43,30.2h-2.5v-1H43V30.2z"/>
	<path class="st1" d="M22,31.3c-0.4,0-0.7-0.3-0.7-0.7v-2c0-0.4,0.3-0.7,0.7-0.7h3.5c0.4,0,0.7,0.3,0.7,0.7v2c0,0.4-0.3,0.7-0.7,0.7
		H22z M24.8,29.4h-2.1V30h2.1V29.4z"/>
	<path class="st0" d="M25.5,28.2H22c-0.3,0-0.5,0.2-0.5,0.5v2c0,0.3,0.2,0.5,0.5,0.5h3.5c0.3,0,0.5-0.2,0.5-0.5v-2
		C25.9,28.4,25.7,28.2,25.5,28.2 M25,30.2h-2.5v-1H25V30.2z"/>
	<path class="st1" d="M34.1,31.3c-0.4,0-0.7-0.3-0.7-0.7v-2c0-0.4,0.3-0.7,0.7-0.7h3.5c0.4,0,0.7,0.3,0.7,0.7v2
		c0,0.4-0.3,0.7-0.7,0.7H34.1z M36.9,29.4h-2.1V30h2.1V29.4z"/>
	<path class="st0" d="M37.6,28.2h-3.5c-0.3,0-0.5,0.2-0.5,0.5v2c0,0.3,0.2,0.5,0.5,0.5h3.5c0.3,0,0.5-0.2,0.5-0.5v-2
		C38,28.4,37.8,28.2,37.6,28.2 M37.1,30.2h-2.5v-1h2.5V30.2z"/>
	<path class="st1" d="M26.4,24.8c-0.1,0-0.2,0-0.3-0.1c-0.2-0.1-0.4-0.3-0.4-0.6V10.8c0-0.2,0.1-0.5,0.4-0.6
		c0.1-0.1,0.2-0.1,0.3-0.1c0.1,0,0.3,0,0.4,0.1l9.9,6.6c0.2,0.1,0.3,0.3,0.3,0.6c0,0.2-0.1,0.4-0.3,0.6l-9.9,6.6
		C26.7,24.7,26.5,24.8,26.4,24.8 M27.1,22.9l8-5.4l-8-5.4V22.9z"/>
	<path class="st0" d="M36.5,17.1l-9.9-6.6c-0.1-0.1-0.3-0.1-0.5,0c-0.2,0.1-0.2,0.2-0.2,0.4v13.3c0,0.2,0.1,0.3,0.2,0.4
		c0.1,0,0.1,0.1,0.2,0.1c0.1,0,0.2,0,0.3-0.1l9.9-6.6c0.1-0.1,0.2-0.2,0.2-0.4C36.7,17.3,36.6,17.2,36.5,17.1 M26.9,23.2V11.7
		l8.6,5.8L26.9,23.2z"/>
</g>
</svg>
