<?xml version="1.0" encoding="utf-8"?>
<!-- Generator: Adobe Illustrator 24.0.2, SVG Export Plug-In . SVG Version: 6.00 Build 0)  -->
<svg version="1.1" id="圖層_1" xmlns="http://www.w3.org/2000/svg" xmlns:xlink="http://www.w3.org/1999/xlink" x="0px" y="0px"
	 viewBox="0 0 60 60" style="enable-background:new 0 0 60 60;" xml:space="preserve">
<style type="text/css">
	.st0{clip-path:url(#SVGID_2_);fill:#FFFFFF;}
</style>
<g>
	<defs>
		<rect id="SVGID_1_" x="11.5" y="1.4" width="37" height="57.2"/>
	</defs>
	<clipPath id="SVGID_2_">
		<use xlink:href="#SVGID_1_"  style="overflow:visible;"/>
	</clipPath>
	<path class="st0" d="M33.1,16.8c-0.5,0-0.9-0.4-0.9-0.9v-5.2c0-0.5,0.4-0.9,0.9-0.9c0.5,0,0.9,0.4,0.9,0.9v5.2
		C34,16.4,33.6,16.8,33.1,16.8"/>
	<path class="st0" d="M29,16.8c-0.5,0-0.9-0.4-0.9-0.9V6.3c0-0.5,0.4-0.9,0.9-0.9c0.5,0,0.9,0.4,0.9,0.9v9.5
		C29.9,16.4,29.5,16.8,29,16.8"/>
	<path class="st0" d="M24.9,16.7c-0.5,0-0.9-0.4-0.9-0.9V6.3c0-0.5,0.4-0.9,0.9-0.9c0.5,0,0.9,0.4,0.9,0.9v9.5
		C25.8,16.3,25.4,16.7,24.9,16.7"/>
	<path class="st0" d="M24.8,28.1c-0.5,0-0.9-0.4-0.9-0.9c-0.2-2.9-3.2-3.3-3.3-3.3c-0.5-0.1-0.8-0.4-0.8-0.9v-8
		c0-0.5,0.4-0.9,0.9-0.9c0.5,0,0.9,0.4,0.9,0.9v7.2c1.7,0.5,3.9,1.9,4.1,4.9C25.8,27.6,25.4,28.1,24.8,28.1
		C24.9,28.1,24.9,28.1,24.8,28.1"/>
	<path class="st0" d="M27.7,58.6h-7.9c-0.5,0-0.9-0.4-0.9-0.9V37.3c0-0.5,0.4-0.9,0.9-0.9h7.9c0.5,0,0.9,0.4,0.9,0.9
		c0,0.5-0.4,0.9-0.9,0.9h-7v18.6h7c0.5,0,0.9,0.4,0.9,0.9C28.6,58.2,28.2,58.6,27.7,58.6"/>
	<path class="st0" d="M33.5,30.7c-0.5,0-0.9-0.4-0.9-0.9v-4.2c0-0.5,0.4-0.9,0.9-0.9c0.5,0,0.9,0.4,0.9,0.9v4.2
		C34.4,30.3,34,30.7,33.5,30.7"/>
	<path class="st0" d="M36.8,30.7c-0.5,0-0.9-0.4-0.9-0.9v-7.6c0-0.5,0.4-0.9,0.9-0.9c0.5,0,0.9,0.4,0.9,0.9v7.6
		C37.7,30.3,37.3,30.7,36.8,30.7"/>
	<path class="st0" d="M40.1,30.6c-0.5,0-0.9-0.4-0.9-0.9v-7.6c0-0.5,0.4-0.9,0.9-0.9c0.5,0,0.9,0.4,0.9,0.9v7.6
		C41,30.2,40.6,30.6,40.1,30.6"/>
	<path class="st0" d="M40.1,39.8C40,39.8,40,39.8,40.1,39.8c-0.6,0-0.9-0.5-0.9-1c0.1-2.4,1.9-3.6,3.3-4v-5.7c0-0.5,0.4-0.9,0.9-0.9
		s0.9,0.4,0.9,0.9v6.4c0,0.5-0.3,0.8-0.8,0.9c-0.2,0-2.4,0.4-2.5,2.5C40.9,39.4,40.5,39.8,40.1,39.8"/>
	<path class="st0" d="M43.4,47.9H31.6c-0.5,0-0.9-0.4-0.9-0.9v-2.3c0-1.6-0.2-3.1-0.7-4.6l-0.7-2.2c0-0.1,0-0.2,0-0.3V25.7
		c0-1.3,0.9-2.4,2.1-2.6c0.4-0.1,0.8,0,1.2,0.1v-0.9c0-1.3,0.9-2.4,2.1-2.6c0.5-0.1,0.9,0,1.4,0.1c0.3-0.9,1-1.5,1.9-1.7
		c0.8-0.1,1.5,0.1,2.1,0.6c0.4,0.3,0.6,0.7,0.8,1.1c0.4-0.2,0.9-0.2,1.3-0.1c1.2,0.2,2.1,1.3,2.1,2.6v4.1c0.5-0.2,1-0.3,1.5-0.2
		c1.5,0.1,2.8,1.5,2.8,3.1v6.4c0,1.5-0.6,3-1.6,4.1l-2.6,2.8V47C44.3,47.5,43.9,47.9,43.4,47.9 M32.5,46.1h10v-3.9
		c0-0.2,0.1-0.5,0.2-0.6l2.9-3.1c0.7-0.8,1.1-1.8,1.1-2.8v-6.4c0-0.7-0.5-1.3-1.1-1.3c-0.3,0-0.7,0.1-0.9,0.3
		c-0.3,0.2-0.4,0.5-0.4,0.9c0,0.5-0.4,0.9-0.9,0.9c-0.5,0-0.9-0.4-0.9-0.9v-6.9c0-0.4-0.3-0.8-0.6-0.8c-0.3-0.1-0.5,0.1-0.6,0.2
		c-0.2,0.1-0.3,0.3-0.3,0.6c0,0.5-0.4,0.9-0.9,0.9c-0.5,0-0.9-0.4-0.9-0.9v-1.6c0-0.2-0.1-0.4-0.3-0.6c-0.1-0.1-0.3-0.2-0.6-0.2
		c-0.3,0.1-0.6,0.4-0.6,0.8v1.5c0,0.5-0.4,0.9-0.9,0.9s-0.9-0.4-0.9-0.9c0-0.2-0.1-0.4-0.3-0.6c-0.1-0.1-0.3-0.2-0.6-0.2
		c-0.3,0.1-0.6,0.4-0.6,0.8v3.4c0,0.5-0.4,0.9-0.9,0.9c-0.5,0-0.9-0.4-0.9-0.9c0-0.2-0.1-0.4-0.3-0.6c-0.1-0.1-0.3-0.2-0.6-0.2
		c-0.3,0.1-0.6,0.4-0.6,0.8v11.8l0.6,2c0.5,1.7,0.8,3.4,0.8,5.1V46.1z"/>
	<path class="st0" d="M44.1,58.6H30.8c-0.5,0-0.9-0.4-0.9-0.9V47c0-0.5,0.4-0.9,0.9-0.9h13.4c0.5,0,0.9,0.4,0.9,0.9v10.7
		C45.1,58.2,44.6,58.6,44.1,58.6 M31.7,56.8h11.5v-8.9H31.7V56.8z"/>
	<path class="st0" d="M27,38.2h-6.3c-0.5,0-0.9-0.4-0.9-0.9v-5.7L16.5,28c-1.2-1.3-1.9-3.1-1.9-4.9v-8c0-1.9,1.4-3.5,3.2-3.7
		c0.7-0.1,1.4,0.1,2,0.4V6.4c0-1.5,1-2.8,2.4-3c0.6-0.1,1.2,0,1.8,0.2c0.2-0.6,0.5-1.1,1-1.5c0.7-0.6,1.6-0.8,2.4-0.6
		c1.1,0.2,2,1.1,2.3,2.2c0.5-0.3,1.2-0.3,1.8-0.2C33,3.7,34,4.9,34,6.4v1.5c0.5-0.2,1.1-0.3,1.7-0.2c1.4,0.2,2.4,1.5,2.4,3v5.9
		c0,0.5-0.4,0.9-0.9,0.9c-0.5,0-0.9-0.4-0.9-0.9v-5.9c0-0.6-0.4-1.1-0.9-1.2c-0.3-0.1-0.7,0-1,0.2C34.1,10,34,10.3,34,10.6
		c0,0.5-0.4,0.9-0.9,0.9c-0.5,0-0.9-0.4-0.9-0.9V6.4c0-0.6-0.4-1.1-0.9-1.2c-0.3-0.1-0.7,0-1,0.2C30,5.7,29.9,6,29.9,6.3
		c0,0.5-0.4,0.9-0.9,0.9S28,6.8,28,6.3V4.5c0-0.6-0.4-1.1-0.9-1.2c-0.4-0.1-0.7,0-1,0.2c-0.3,0.2-0.4,0.5-0.4,0.9v2
		c0,0.5-0.4,0.9-0.9,0.9c-0.5,0-0.9-0.4-0.9-0.9c0-0.3-0.1-0.7-0.4-0.9c-0.3-0.2-0.6-0.3-1-0.2c-0.5,0.1-0.9,0.6-0.9,1.2V15
		c0,0.5-0.4,0.9-0.9,0.9c-0.5,0-0.9-0.4-0.9-0.9c0-0.5-0.2-0.9-0.6-1.3c-0.4-0.3-0.8-0.5-1.3-0.4c-0.9,0.1-1.6,0.9-1.6,1.9v8
		c0,1.4,0.5,2.7,1.4,3.7l3.6,3.9c0.2,0.2,0.2,0.4,0.2,0.6v5.1H27c0.5,0,0.9,0.4,0.9,0.9C27.9,37.8,27.5,38.2,27,38.2"/>
	<path class="st0" d="M14.3,34.5c-0.5,0-0.9-0.4-0.9-0.9V33c0-0.5,0.4-0.9,0.9-0.9s0.9,0.4,0.9,0.9v0.6
		C15.2,34.1,14.8,34.5,14.3,34.5"/>
	<path class="st0" d="M16.2,35.7h-0.6c-0.5,0-0.9-0.4-0.9-0.9c0-0.5,0.4-0.9,0.9-0.9h0.6c0.5,0,0.9,0.4,0.9,0.9
		C17.1,35.3,16.7,35.7,16.2,35.7"/>
	<path class="st0" d="M14.3,37.6c-0.5,0-0.9-0.4-0.9-0.9v-0.6c0-0.5,0.4-0.9,0.9-0.9s0.9,0.4,0.9,0.9v0.6
		C15.2,37.2,14.8,37.6,14.3,37.6"/>
	<path class="st0" d="M13,35.7h-0.6c-0.5,0-0.9-0.4-0.9-0.9c0-0.5,0.4-0.9,0.9-0.9H13c0.5,0,0.9,0.4,0.9,0.9
		C14,35.3,13.5,35.7,13,35.7"/>
	<path class="st0" d="M45.3,11.2c-0.5,0-0.9-0.4-0.9-0.9V9.7c0-0.5,0.4-0.9,0.9-0.9c0.5,0,0.9,0.4,0.9,0.9v0.6
		C46.2,10.8,45.8,11.2,45.3,11.2"/>
	<path class="st0" d="M47.2,12.5h-0.6c-0.5,0-0.9-0.4-0.9-0.9c0-0.5,0.4-0.9,0.9-0.9h0.6c0.5,0,0.9,0.4,0.9,0.9
		C48.1,12.1,47.7,12.5,47.2,12.5"/>
	<path class="st0" d="M45.3,14.4c-0.5,0-0.9-0.4-0.9-0.9v-0.6c0-0.5,0.4-0.9,0.9-0.9c0.5,0,0.9,0.4,0.9,0.9v0.6
		C46.2,13.9,45.8,14.4,45.3,14.4"/>
	<path class="st0" d="M44.1,12.5h-0.6c-0.5,0-0.9-0.4-0.9-0.9c0-0.5,0.4-0.9,0.9-0.9h0.6c0.5,0,0.9,0.4,0.9,0.9
		C45,12.1,44.6,12.5,44.1,12.5"/>
</g>
</svg>
