<?xml version="1.0" encoding="utf-8"?>
<!-- Generator: Adobe Illustrator 24.0.2, SVG Export Plug-In . SVG Version: 6.00 Build 0)  -->
<svg version="1.1" id="圖層_1" xmlns="http://www.w3.org/2000/svg" xmlns:xlink="http://www.w3.org/1999/xlink" x="0px" y="0px"
	 viewBox="0 0 60 60" style="enable-background:new 0 0 60 60;" xml:space="preserve">
<style type="text/css">
	.st0{clip-path:url(#SVGID_2_);fill:#FFFFFF;}
</style>
<g>
	<defs>
		<rect id="SVGID_1_" x="2.1" y="3.8" width="55.9" height="52.4"/>
	</defs>
	<clipPath id="SVGID_2_">
		<use xlink:href="#SVGID_1_"  style="overflow:visible;"/>
	</clipPath>
	<path class="st0" d="M14.5,56.2H6.7c-1.3,0-2.4-1.1-2.4-2.4V16.4c0-1.3,1.1-2.4,2.4-2.4h7.8c1.3,0,2.4,1.1,2.4,2.4v37.3
		C17,55.1,15.9,56.2,14.5,56.2 M6.7,15.8c-0.3,0-0.6,0.3-0.6,0.6v37.3c0,0.3,0.3,0.6,0.6,0.6h7.8c0.3,0,0.6-0.3,0.6-0.6V16.4
		c0-0.3-0.3-0.6-0.6-0.6H6.7z"/>
	<path class="st0" d="M27.7,56.2H17.6c-1.3,0-2.4-1.1-2.4-2.4V9.4c0-1.3,1.1-2.4,2.4-2.4h10.1c1.3,0,2.4,1.1,2.4,2.4v44.4
		C30.2,55.1,29.1,56.2,27.7,56.2 M17.6,8.8C17.2,8.8,17,9,17,9.4v44.4c0,0.3,0.3,0.6,0.6,0.6h10.1c0.3,0,0.6-0.3,0.6-0.6V9.4
		c0-0.3-0.3-0.6-0.6-0.6H17.6z"/>
	<path class="st0" d="M35.5,56.2h-4.7c-1.3,0-2.4-1.1-2.4-2.4v-42c0-1.3,1.1-2.4,2.4-2.4h4.7c1.3,0,2.4,1.1,2.4,2.4v42
		C37.9,55.1,36.8,56.2,35.5,56.2 M30.8,11.1c-0.3,0-0.6,0.3-0.6,0.6v42c0,0.3,0.3,0.6,0.6,0.6h4.7c0.3,0,0.6-0.3,0.6-0.6v-42
		c0-0.3-0.3-0.6-0.6-0.6H30.8z"/>
	<path class="st0" d="M47.1,56.2h-8.6c-1.3,0-2.4-1.1-2.4-2.4V6.3c0-1.3,1.1-2.4,2.4-2.4h8.6c1.3,0,2.4,1.1,2.4,2.4v47.5
		C49.5,55.1,48.5,56.2,47.1,56.2 M38.5,5.6c-0.3,0-0.6,0.3-0.6,0.6v47.5c0,0.3,0.3,0.6,0.6,0.6h8.6c0.3,0,0.6-0.3,0.6-0.6V6.3
		c0-0.3-0.3-0.6-0.6-0.6H38.5z"/>
	<path class="st0" d="M53.3,56.2h-3.1c-1.3,0-2.4-1.1-2.4-2.4V9.4c0-1.3,1.1-2.4,2.4-2.4h3.1c1.3,0,2.4,1.1,2.4,2.4v5.1
		c0,0.5-0.4,0.9-0.9,0.9c-0.5,0-0.9-0.4-0.9-0.9V9.4c0-0.3-0.3-0.6-0.6-0.6h-3.1c-0.3,0-0.6,0.3-0.6,0.6v44.4c0,0.3,0.3,0.6,0.6,0.6
		h3.1c0.3,0,0.6-0.3,0.6-0.6V19.9c0-0.5,0.4-0.9,0.9-0.9c0.5,0,0.9,0.4,0.9,0.9v33.9C55.7,55.1,54.6,56.2,53.3,56.2"/>
	<path class="st0" d="M16,27.4H5.2c-0.5,0-0.9-0.4-0.9-0.9v-3.1c0-0.5,0.4-0.9,0.9-0.9H16c0.5,0,0.9,0.4,0.9,0.9v3.1
		C17,27,16.5,27.4,16,27.4 M6.1,25.5h9v-1.3h-9V25.5z"/>
	<path class="st0" d="M16,33.4H5.2c-0.5,0-0.9-0.4-0.9-0.9v-3.1c0-0.5,0.4-0.9,0.9-0.9H16c0.5,0,0.9,0.4,0.9,0.9v3.1
		C17,33,16.5,33.4,16,33.4 M6.1,31.6h9v-1.3h-9V31.6z"/>
	<path class="st0" d="M12.2,48.1H9c-0.5,0-0.9-0.4-0.9-0.9c0-0.5,0.4-0.9,0.9-0.9h3.2c0.5,0,0.9,0.4,0.9,0.9
		C13.1,47.6,12.7,48.1,12.2,48.1"/>
	<path class="st0" d="M12.2,44.9H9c-0.5,0-0.9-0.4-0.9-0.9C8.1,43.5,8.5,43,9,43h3.2c0.5,0,0.9,0.4,0.9,0.9
		C13.1,44.5,12.7,44.9,12.2,44.9"/>
	<path class="st0" d="M24.2,48.1h-3.2c-0.5,0-0.9-0.4-0.9-0.9c0-0.5,0.4-0.9,0.9-0.9h3.2c0.5,0,0.9,0.4,0.9,0.9
		C25.2,47.6,24.7,48.1,24.2,48.1"/>
	<path class="st0" d="M24.2,44.9h-3.2c-0.5,0-0.9-0.4-0.9-0.9c0-0.5,0.4-0.9,0.9-0.9h3.2c0.5,0,0.9,0.4,0.9,0.9
		C25.2,44.5,24.7,44.9,24.2,44.9"/>
	<path class="st0" d="M24.2,35.5h-3c-1.4,0-2.5-1.1-2.5-2.5V19.2c0-1.4,1.1-2.5,2.5-2.5h3c1.4,0,2.5,1.1,2.5,2.5V33
		C26.6,34.4,25.5,35.5,24.2,35.5 M21.1,18.5c-0.4,0-0.6,0.3-0.6,0.6V33c0,0.4,0.3,0.6,0.6,0.6h3c0.4,0,0.6-0.3,0.6-0.6V19.2
		c0-0.4-0.3-0.6-0.6-0.6H21.1z"/>
	<path class="st0" d="M37,46.6h-3.9c-0.5,0-0.9-0.4-0.9-0.9s0.4-0.9,0.9-0.9H37c0.5,0,0.9,0.4,0.9,0.9S37.5,46.6,37,46.6"/>
	<path class="st0" d="M37,19.5h-4.2c-0.5,0-0.9-0.4-0.9-0.9c0-0.5,0.4-0.9,0.9-0.9H37c0.5,0,0.9,0.4,0.9,0.9
		C37.9,19.1,37.5,19.5,37,19.5"/>
	<path class="st0" d="M48.6,15.8H37c-0.5,0-0.9-0.4-0.9-0.9v-3c0-0.5,0.4-0.9,0.9-0.9h11.6c0.5,0,0.9,0.4,0.9,0.9v3
		C49.5,15.4,49.1,15.8,48.6,15.8 M37.9,14h9.8v-1.2h-9.8V14z"/>
	<path class="st0" d="M48.6,30.6H37c-0.5,0-0.9-0.4-0.9-0.9v-3c0-0.5,0.4-0.9,0.9-0.9h11.6c0.5,0,0.9,0.4,0.9,0.9v3
		C49.5,30.2,49.1,30.6,48.6,30.6 M37.9,28.8h9.8v-1.2h-9.8V28.8z"/>
	<path class="st0" d="M48.6,45.4H37c-0.5,0-0.9-0.4-0.9-0.9v-3c0-0.5,0.4-0.9,0.9-0.9h11.6c0.5,0,0.9,0.4,0.9,0.9v3
		C49.5,45,49.1,45.4,48.6,45.4 M37.9,43.6h9.8v-1.2h-9.8V43.6z"/>
	<path class="st0" d="M45.4,51.3h-5.1c-0.5,0-0.9-0.4-0.9-0.9c0-0.5,0.4-0.9,0.9-0.9h5.1c0.5,0,0.9,0.4,0.9,0.9
		C46.3,50.9,45.9,51.3,45.4,51.3"/>
	<path class="st0" d="M51.7,51.3c-0.5,0-0.9-0.4-0.9-0.9v-2.3c0-0.5,0.4-0.9,0.9-0.9c0.5,0,0.9,0.4,0.9,0.9v2.3
		C52.6,50.9,52.2,51.3,51.7,51.3"/>
	<path class="st0" d="M51.7,45.4c-0.5,0-0.9-0.4-0.9-0.9v-6.5c0-0.5,0.4-0.9,0.9-0.9c0.5,0,0.9,0.4,0.9,0.9v6.5
		C52.6,45,52.2,45.4,51.7,45.4"/>
	<path class="st0" d="M51.7,18.3c-0.5,0-0.9-0.4-0.9-0.9v-4.5c0-0.5,0.4-0.9,0.9-0.9c0.5,0,0.9,0.4,0.9,0.9v4.5
		C52.6,17.9,52.2,18.3,51.7,18.3"/>
	<path class="st0" d="M57,56.2H3c-0.5,0-0.9-0.4-0.9-0.9c0-0.5,0.4-0.9,0.9-0.9H57c0.5,0,0.9,0.4,0.9,0.9
		C57.9,55.8,57.5,56.2,57,56.2"/>
</g>
</svg>
