<?xml version="1.0" encoding="utf-8"?>
<!-- Generator: Adobe Illustrator 24.0.2, SVG Export Plug-In . SVG Version: 6.00 Build 0)  -->
<svg version="1.1" id="圖層_1" xmlns="http://www.w3.org/2000/svg" xmlns:xlink="http://www.w3.org/1999/xlink" x="0px" y="0px"
	 viewBox="0 0 60 60" style="enable-background:new 0 0 60 60;" xml:space="preserve">
<style type="text/css">
	.st0{clip-path:url(#SVGID_2_);fill:#FFFFFF;}
</style>
<g>
	<defs>
		<rect id="SVGID_1_" x="7.4" y="3.3" width="45.3" height="53.3"/>
	</defs>
	<clipPath id="SVGID_2_">
		<use xlink:href="#SVGID_1_"  style="overflow:visible;"/>
	</clipPath>
	<path class="st0" d="M8.3,11.2c-0.5,0-0.9-0.4-0.9-0.9V7.5c0-0.5,0.4-0.9,0.9-0.9h34.9C43.6,6.5,44,7,44,7.5c0,0.5-0.4,0.9-0.9,0.9
		H9.2v1.9C9.2,10.8,8.8,11.2,8.3,11.2"/>
	<path class="st0" d="M43.1,56.7H16.9c-0.2,0-0.4-0.1-0.6-0.2l-8.6-6.5c-0.2-0.2-0.4-0.4-0.4-0.7V14.9c0-0.5,0.4-0.9,0.9-0.9
		c0.5,0,0.9,0.4,0.9,0.9v33.9l8,6.1h25V32.4c0-0.5,0.4-0.9,0.9-0.9c0.5,0,0.9,0.4,0.9,0.9v23.4C44,56.3,43.6,56.7,43.1,56.7"/>
	<path class="st0" d="M46.4,8.5c-0.5,0-0.9-0.4-0.9-0.9V5.2h-33v1.4h30.7C43.6,6.5,44,7,44,7.5c0,0.5-0.4,0.9-0.9,0.9H11.6
		c-0.5,0-0.9-0.4-0.9-0.9V4.2c0-0.5,0.4-0.9,0.9-0.9h34.9c0.5,0,0.9,0.4,0.9,0.9v3.3C47.3,8.1,46.9,8.5,46.4,8.5"/>
	<path class="st0" d="M46.4,53.5h-3.3c-0.5,0-0.9-0.4-0.9-0.9V32.4c0-0.5,0.4-0.9,0.9-0.9c0.5,0,0.9,0.4,0.9,0.9v19.2h1.5V29.3
		c0-0.5,0.4-0.9,0.9-0.9c0.5,0,0.9,0.4,0.9,0.9v23.2C47.3,53,46.9,53.5,46.4,53.5"/>
	<path class="st0" d="M16.9,56.7c-0.2,0-0.4-0.1-0.6-0.2l-8.6-6.5c-0.3-0.2-0.4-0.6-0.3-1c0.1-0.4,0.5-0.6,0.9-0.6h8.6
		c0.5,0,0.9,0.4,0.9,0.9v6.5c0,0.3-0.2,0.7-0.5,0.8C17.2,56.6,17,56.7,16.9,56.7 M11,50.1l5,3.8v-3.8H11z"/>
	<path class="st0" d="M24,48c-0.2,0-0.4-0.1-0.5-0.2c-0.4-0.3-0.5-0.9-0.2-1.3l22.6-31.6c0.3-0.4,0.9-0.5,1.3-0.2
		c0.4,0.3,0.5,0.9,0.2,1.3L24.7,47.6C24.5,47.9,24.2,48,24,48"/>
	<path class="st0" d="M47,20.6c0,0-0.1,0-0.1,0l-3.2-0.5c-0.5-0.1-0.8-0.5-0.8-1c0.1-0.5,0.5-0.8,1-0.8l3.2,0.5
		c0.5,0.1,0.8,0.5,0.8,1C47.8,20.3,47.4,20.6,47,20.6"/>
	<path class="st0" d="M42.8,29.7c0,0-0.1,0-0.1,0l-5.3-0.8c-0.5-0.1-0.8-0.5-0.8-1c0.1-0.5,0.5-0.8,1-0.8l5.3,0.8
		c0.5,0.1,0.8,0.5,0.8,1C43.7,29.4,43.3,29.7,42.8,29.7"/>
	<path class="st0" d="M37.5,33.8c0,0-0.1,0-0.1,0l-3-0.4c-0.5-0.1-0.8-0.5-0.8-1c0.1-0.5,0.5-0.8,1-0.8l3,0.4c0.5,0.1,0.8,0.5,0.8,1
		C38.3,33.4,37.9,33.8,37.5,33.8"/>
	<path class="st0" d="M42.4,22.2c-0.3,0-0.6-0.2-0.8-0.5l-2.6-5c-0.2-0.4-0.1-1,0.4-1.2c0.4-0.2,1-0.1,1.2,0.4l2.6,5
		c0.2,0.4,0.1,1-0.4,1.2C42.6,22.2,42.5,22.2,42.4,22.2"/>
	<path class="st0" d="M39.2,26.6c-0.3,0-0.6-0.2-0.8-0.5l-1.1-2.2c-0.2-0.4-0.1-1,0.4-1.2c0.4-0.2,1-0.1,1.2,0.4l1.1,2.2
		c0.2,0.4,0.1,1-0.4,1.2C39.5,26.5,39.4,26.6,39.2,26.6"/>
	<path class="st0" d="M36.1,31c-0.3,0-0.6-0.2-0.8-0.5l-2.4-4.7c-0.2-0.4-0.1-1,0.4-1.2c0.4-0.2,1-0.1,1.2,0.4l2.4,4.7
		c0.2,0.4,0.1,1-0.4,1.2C36.4,30.9,36.2,31,36.1,31"/>
	<path class="st0" d="M33,35.3c-0.3,0-0.6-0.2-0.8-0.5l-2.3-4.5c-0.2-0.4-0.1-1,0.4-1.2c0.4-0.2,1-0.1,1.2,0.4l2.3,4.5
		c0.2,0.4,0.1,1-0.4,1.2C33.3,35.3,33.1,35.3,33,35.3"/>
	<path class="st0" d="M29.8,39.7c-0.3,0-0.6-0.2-0.8-0.5l-1.2-2.3c-0.2-0.4-0.1-1,0.4-1.2c0.4-0.2,1-0.1,1.2,0.4l1.2,2.3
		c0.2,0.4,0.1,1-0.4,1.2C30.1,39.7,30,39.7,29.8,39.7"/>
	<path class="st0" d="M31.4,43.3c-0.6,0-1.2-0.2-1.7-0.5l-3.7-2.6c-1.3-0.9-1.6-2.6-0.7-3.9l5.4-8.2c0.2-0.3,0.5-0.4,0.8-0.4
		c-0.1-0.3-0.1-0.6,0.1-0.9l8.6-13c0.1-0.2,0.3-0.3,0.5-0.4c0-0.2,0-0.4,0.1-0.6l0.5-0.7c1.9-2.8,5.7-3.7,8.4-2
		c1.9,1.2,2.9,3.2,2.9,5.3c0,0.4-0.2,0.7-0.6,0.8l-0.5,0.2c0.5,0.2,0.8,0.7,0.6,1.2c-0.2,0.5-0.7,0.7-1.1,0.6l-2.4-0.8
		c-0.4-0.1-0.6-0.5-0.6-0.8c0-0.4,0.2-0.7,0.6-0.9l2.2-0.9c-0.1-1.3-0.9-2.5-2-3.2c-1.9-1.2-4.6-0.6-5.9,1.4l-0.2,0.3l0.4,1.3
		c0.1,0.4,0,0.8-0.4,1c-0.3,0.2-0.7,0.2-1,0l-0.3-0.2l-7.8,11.8l0.6,1.5c0.1,0.3,0.1,0.7-0.2,1c-0.3,0.3-0.7,0.3-1,0.2l-1-0.4
		l-5,7.6c-0.3,0.5-0.2,1.1,0.3,1.4l3.7,2.6c0.4,0.3,1,0.2,1.3-0.1l-0.5-1c-0.2-0.3-0.1-0.7,0.1-1s0.6-0.4,0.9-0.3l1.2,0.2l9-11.7
		c-0.3-0.3-0.5-0.5-0.5-0.5c-0.3-0.3-0.3-0.7-0.2-1c0.2-0.3,0.5-0.5,0.9-0.5l1.3,0.1l3.8-5c0.3-0.4,0.9-0.5,1.3-0.2
		c0.4,0.3,0.5,0.9,0.2,1.3l-4.1,5.4c-0.1,0.2-0.3,0.3-0.6,0.3c0,0.2,0,0.4-0.2,0.6l-9.8,12.8c-0.2,0.2-0.5,0.4-0.8,0.4
		c0.1,0.3,0,0.6-0.1,0.8l-0.3,0.4C33.1,43,32.3,43.3,31.4,43.3"/>
	<path class="st0" d="M38.7,14.4H13.3c-0.5,0-0.9-0.4-0.9-0.9c0-0.5,0.4-0.9,0.9-0.9h25.4c0.5,0,0.9,0.4,0.9,0.9
		C39.6,13.9,39.2,14.4,38.7,14.4"/>
	<path class="st0" d="M35.6,18.2H13.3c-0.5,0-0.9-0.4-0.9-0.9c0-0.5,0.4-0.9,0.9-0.9h22.3c0.5,0,0.9,0.4,0.9,0.9
		C36.5,17.8,36.1,18.2,35.6,18.2"/>
	<path class="st0" d="M33.5,22H13.3c-0.5,0-0.9-0.4-0.9-0.9c0-0.5,0.4-0.9,0.9-0.9h20.2c0.5,0,0.9,0.4,0.9,0.9
		C34.4,21.6,34,22,33.5,22"/>
	<path class="st0" d="M30.8,25.8H13.3c-0.5,0-0.9-0.4-0.9-0.9c0-0.5,0.4-0.9,0.9-0.9h17.5c0.5,0,0.9,0.4,0.9,0.9
		C31.7,25.4,31.3,25.8,30.8,25.8"/>
	<path class="st0" d="M28,29.6H13.3c-0.5,0-0.9-0.4-0.9-0.9c0-0.5,0.4-0.9,0.9-0.9H28c0.5,0,0.9,0.4,0.9,0.9
		C28.9,29.2,28.5,29.6,28,29.6"/>
	<path class="st0" d="M25.3,33.4h-12c-0.5,0-0.9-0.4-0.9-0.9s0.4-0.9,0.9-0.9h12c0.5,0,0.9,0.4,0.9,0.9S25.8,33.4,25.3,33.4"/>
	<path class="st0" d="M23.1,37.2h-9.8c-0.5,0-0.9-0.4-0.9-0.9s0.4-0.9,0.9-0.9h9.8c0.5,0,0.9,0.4,0.9,0.9S23.6,37.2,23.1,37.2"/>
	<path class="st0" d="M23.1,41h-9.8c-0.5,0-0.9-0.4-0.9-0.9c0-0.5,0.4-0.9,0.9-0.9h9.8c0.5,0,0.9,0.4,0.9,0.9
		C24,40.6,23.6,41,23.1,41"/>
	<path class="st0" d="M23.1,44.8h-9.8c-0.5,0-0.9-0.4-0.9-0.9c0-0.5,0.4-0.9,0.9-0.9h9.8c0.5,0,0.9,0.4,0.9,0.9
		C24,44.4,23.6,44.8,23.1,44.8"/>
</g>
</svg>
